<svg width="12" height="22" viewBox="0 0 12 22" fill="none" xmlns="http://www.w3.org/2000/svg">
<path d="M2 15C2 14.7348 1.89464 14.4804 1.70711 14.2929C1.51957 14.1054 1.26522 14 1 14C0.734784 14 0.48043 14.1054 0.292893 14.2929C0.105357 14.4804 0 14.7348 0 15C0.00158786 16.3256 0.528882 17.5964 1.46622 18.5338C2.40356 19.4711 3.67441 19.9984 5 20V21C5 21.2652 5.10536 21.5196 5.29289 21.7071C5.48043 21.8946 5.73478 22 6 22C6.26522 22 6.51957 21.8946 6.70711 21.7071C6.89464 21.5196 7 21.2652 7 21V20C8.32608 20 9.59785 19.4732 10.5355 18.5355C11.4732 17.5979 12 16.3261 12 15C12 13.6739 11.4732 12.4021 10.5355 11.4645C9.59785 10.5268 8.32608 10 7 10V4C7.79565 4 8.55871 4.31607 9.12132 4.87868C9.68393 5.44129 10 6.20435 10 7C10 7.26522 10.1054 7.51957 10.2929 7.70711C10.4804 7.89464 10.7348 8 11 8C11.2652 8 11.5196 7.89464 11.7071 7.70711C11.8946 7.51957 12 7.26522 12 7C11.9984 5.67441 11.4711 4.40356 10.5338 3.46622C9.59644 2.52888 8.32559 2.00159 7 2V1C7 0.734784 6.89464 0.48043 6.70711 0.292893C6.51957 0.105357 6.26522 0 6 0C5.73478 0 5.48043 0.105357 5.29289 0.292893C5.10536 0.48043 5 0.734784 5 1V2C3.67392 2 2.40215 2.52678 1.46447 3.46447C0.526784 4.40215 0 5.67392 0 7C0 8.32608 0.526784 9.59785 1.46447 10.5355C2.40215 11.4732 3.67392 12 5 12V18C4.20435 18 3.44129 17.6839 2.87868 17.1213C2.31607 16.5587 2 15.7956 2 15ZM7 12C7.79565 12 8.55871 12.3161 9.12132 12.8787C9.68393 13.4413 10 14.2044 10 15C10 15.7956 9.68393 16.5587 9.12132 17.1213C8.55871 17.6839 7.79565 18 7 18V12ZM2 7C2 6.20435 2.31607 5.44129 2.87868 4.87868C3.44129 4.31607 4.20435 4 5 4V10C4.20435 10 3.44129 9.68393 2.87868 9.12132C2.31607 8.55871 2 7.79565 2 7Z" fill="black"/>
</svg>
