<svg width="20" height="10" viewBox="0 0 20 10" fill="none" xmlns="http://www.w3.org/2000/svg">
<path d="M0.30499 4.18805C0.495682 4.00372 0.751785 3.9027 1.01696 3.9072C1.28214 3.9117 1.53466 4.02136 1.71899 4.21205L4.92499 7.53105L12.3 0.242048C12.4922 0.076602 12.7402 -0.00961502 12.9936 0.000852779C13.247 0.0113206 13.487 0.117691 13.6649 0.298428C13.8428 0.479165 13.9455 0.720764 13.952 0.974312C13.9585 1.22786 13.8684 1.47441 13.7 1.66405L5.60899 9.66405C5.42257 9.84843 5.17119 9.95221 4.90899 9.95305H4.89999C4.76802 9.95223 4.63752 9.92531 4.516 9.87382C4.39449 9.82233 4.28437 9.7473 4.19199 9.65305L0.28099 5.60205C0.0966663 5.41136 -0.00435667 5.15525 0.000144196 4.89008C0.00464506 4.6249 0.114301 4.37237 0.30499 4.18805ZM18.3 0.242048L10.928 7.53105L10.665 7.25805C10.5739 7.16306 10.4649 7.087 10.3443 7.03423C10.2237 6.98146 10.0938 6.95301 9.96223 6.95053C9.83062 6.94805 9.69981 6.97158 9.57731 7.01977C9.45481 7.06796 9.34303 7.13986 9.24839 7.23135C9.15374 7.32284 9.07808 7.43212 9.02577 7.55291C8.97345 7.6737 8.94549 7.80364 8.9435 7.93526C8.94152 8.06688 8.96553 8.1976 9.01418 8.31992C9.06283 8.44223 9.13515 8.55374 9.22699 8.64805L10.193 9.64805C10.2854 9.7423 10.3955 9.81733 10.517 9.86882C10.6385 9.92031 10.769 9.94724 10.901 9.94805H10.912C11.1742 9.94721 11.4256 9.84342 11.612 9.65905L19.703 1.65905C19.8678 1.46857 19.9547 1.2229 19.9462 0.971152C19.9378 0.719403 19.8346 0.480117 19.6574 0.30112C19.4802 0.122124 19.2419 0.0166052 18.9903 0.00565358C18.7386 -0.00529803 18.4921 0.0791249 18.3 0.242048Z" fill="black"/>
</svg>
