<svg width="20" height="20" viewBox="0 0 20 20" fill="none" xmlns="http://www.w3.org/2000/svg">
<path d="M19.707 2.47503L17.525 0.293031C17.3375 0.105559 17.0832 0.000244141 16.818 0.000244141C16.5528 0.000244141 16.2985 0.105559 16.111 0.293031L7.384 9.02103C7.27387 9.13008 7.19126 9.26376 7.143 9.41103L6.052 12.684C6.00196 12.8343 5.98831 12.9943 6.01219 13.1508C6.03608 13.3074 6.0968 13.456 6.18937 13.5845C6.28193 13.713 6.40369 13.8177 6.54463 13.8899C6.68556 13.9622 6.84163 13.9999 7 14C7.10746 14 7.2142 13.9825 7.316 13.948L10.589 12.857C10.7363 12.8088 10.87 12.7262 10.979 12.616L19.707 3.88903C19.8945 3.7015 19.9998 3.44719 19.9998 3.18203C19.9998 2.91687 19.8945 2.66256 19.707 2.47503ZM9.732 11.035L8.581 11.419L8.965 10.268L16.818 2.41403L17.586 3.18203L9.732 11.035ZM0 4.00003C0 3.73481 0.105357 3.48046 0.292893 3.29292C0.48043 3.10539 0.734784 3.00003 1 3.00003H9C9.26522 3.00003 9.51957 3.10539 9.70711 3.29292C9.89464 3.48046 10 3.73481 10 4.00003C10 4.26525 9.89464 4.5196 9.70711 4.70714C9.51957 4.89467 9.26522 5.00003 9 5.00003H2V18H15V11C15 10.7348 15.1054 10.4805 15.2929 10.2929C15.4804 10.1054 15.7348 10 16 10C16.2652 10 16.5196 10.1054 16.7071 10.2929C16.8946 10.4805 17 10.7348 17 11V19C17 19.2652 16.8946 19.5196 16.7071 19.7071C16.5196 19.8947 16.2652 20 16 20H1C0.734784 20 0.48043 19.8947 0.292893 19.7071C0.105357 19.5196 0 19.2652 0 19V4.00003Z" fill="black"/>
</svg>
