<svg width="20" height="18" viewBox="0 0 20 18" fill="none" xmlns="http://www.w3.org/2000/svg">
<path d="M0.292786 8.293L4.29279 4.293C4.38503 4.19749 4.49538 4.12131 4.61738 4.0689C4.73939 4.01649 4.87061 3.9889 5.00339 3.98775C5.13616 3.9866 5.26784 4.0119 5.39074 4.06218C5.51364 4.11246 5.62529 4.18671 5.71918 4.2806C5.81307 4.3745 5.88733 4.48615 5.93761 4.60905C5.98789 4.73194 6.01319 4.86362 6.01204 4.9964C6.01088 5.12918 5.9833 5.2604 5.93089 5.3824C5.87848 5.50441 5.8023 5.61475 5.70679 5.707L3.41379 8H14.9998C15.265 8 15.5194 8.10536 15.7069 8.29289C15.8944 8.48043 15.9998 8.73478 15.9998 9C15.9998 9.26522 15.8944 9.51957 15.7069 9.70711C15.5194 9.89464 15.265 10 14.9998 10H3.41379L5.70679 12.293C5.8023 12.3852 5.87848 12.4956 5.93089 12.6176C5.9833 12.7396 6.01088 12.8708 6.01204 13.0036C6.01319 13.1364 5.98789 13.2681 5.93761 13.391C5.88733 13.5138 5.81307 13.6255 5.71918 13.7194C5.62529 13.8133 5.51364 13.8875 5.39074 13.9378C5.26784 13.9881 5.13616 14.0134 5.00339 14.0123C4.87061 14.0111 4.73939 13.9835 4.61738 13.9311C4.49538 13.8787 4.38503 13.8025 4.29279 13.707L0.292786 9.707C0.105315 9.51947 0 9.26516 0 9C0 8.73484 0.105315 8.48053 0.292786 8.293ZM17.9998 1V17C17.9998 17.2652 18.1051 17.5196 18.2927 17.7071C18.4802 17.8946 18.7346 18 18.9998 18C19.265 18 19.5194 17.8946 19.7069 17.7071C19.8944 17.5196 19.9998 17.2652 19.9998 17V1C19.9998 0.734784 19.8944 0.48043 19.7069 0.292893C19.5194 0.105357 19.265 0 18.9998 0C18.7346 0 18.4802 0.105357 18.2927 0.292893C18.1051 0.48043 17.9998 0.734784 17.9998 1Z" fill="#969696"/>
</svg>
