<svg width="38" height="38" viewBox="0 0 38 38" fill="none" xmlns="http://www.w3.org/2000/svg">
<path d="M33.8818 1.71333C33.7578 1.40411 33.5441 1.13912 33.2681 0.952554C32.9921 0.765989 32.6665 0.666409 32.3334 0.666665H5.66675C5.33362 0.666409 5.00806 0.765989 4.73207 0.952554C4.45608 1.13912 4.24234 1.40411 4.11842 1.71333L0.785081 10.0467C0.706974 10.244 0.666827 10.4544 0.666748 10.6667V35.6667C0.666748 36.1087 0.842343 36.5326 1.1549 36.8452C1.46746 37.1577 1.89139 37.3333 2.33341 37.3333H35.6667C36.1088 37.3333 36.5327 37.1577 36.8453 36.8452C37.1578 36.5326 37.3334 36.1087 37.3334 35.6667V10.6667C37.3333 10.4544 37.2932 10.244 37.2151 10.0467L33.8818 1.71333ZM6.79508 4H31.2051L33.2051 9H4.79508L6.79508 4ZM4.00008 34V12.3333H34.0001V34H4.00008ZM17.3334 29C17.3334 29.442 17.1578 29.866 16.8453 30.1785C16.5327 30.4911 16.1088 30.6667 15.6667 30.6667H9.00008C8.55805 30.6667 8.13413 30.4911 7.82157 30.1785C7.50901 29.866 7.33342 29.442 7.33342 29C7.33342 28.558 7.50901 28.134 7.82157 27.8215C8.13413 27.5089 8.55805 27.3333 9.00008 27.3333H15.6667C16.1088 27.3333 16.5327 27.5089 16.8453 27.8215C17.1578 28.134 17.3334 28.558 17.3334 29Z" fill="#0085FF"/>
</svg>
