<svg width="20" height="20" viewBox="0 0 20 20" fill="none" xmlns="http://www.w3.org/2000/svg">
<path d="M0 9.308C5.66374e-05 9.57319 0.105451 9.82751 0.293 10.015L9.985 19.707C10.1725 19.8945 10.4268 19.9998 10.692 19.9998C10.9572 19.9998 11.2115 19.8945 11.399 19.707L19.707 11.4C19.8945 11.2125 19.9998 10.9582 19.9998 10.693C19.9998 10.4278 19.8945 10.1735 19.707 9.986L10.015 0.293C9.82751 0.105451 9.57319 5.66374e-05 9.308 0H1C0.734784 0 0.48043 0.105357 0.292893 0.292893C0.105357 0.48043 0 0.734784 0 1V9.308ZM2 2H8.894L17.586 10.692L10.692 17.586L2 8.894V2ZM7.923 5.154C8.19684 5.42783 8.38332 5.77671 8.45887 6.15653C8.53443 6.53634 8.49566 6.93003 8.34746 7.28781C8.19926 7.64559 7.9483 7.9514 7.62631 8.16654C7.30432 8.38169 6.92576 8.49653 6.5385 8.49653C6.15124 8.49653 5.77268 8.38169 5.45069 8.16654C5.1287 7.9514 4.87774 7.64559 4.72954 7.28781C4.58134 6.93003 4.54257 6.53634 4.61813 6.15653C4.69368 5.77671 4.88016 5.42783 5.154 5.154C5.33575 4.97207 5.55157 4.82774 5.78914 4.72927C6.0267 4.6308 6.28134 4.58012 6.5385 4.58012C6.79566 4.58012 7.0503 4.6308 7.28786 4.72927C7.52543 4.82774 7.74125 4.97207 7.923 5.154Z" fill="black"/>
</svg>
