<svg width="22" height="19" viewBox="0 0 22 19" fill="none" xmlns="http://www.w3.org/2000/svg">
<path d="M1 18.0878H9C9.26522 18.0878 9.51957 17.9825 9.70711 17.7949C9.89464 17.6074 10 17.353 10 17.0878C10 16.8226 9.89464 16.5682 9.70711 16.3807C9.51957 16.1932 9.26522 16.0878 9 16.0878H2.071C2.31366 14.4226 3.14714 12.9003 4.41925 11.7987C5.69136 10.6972 7.31724 10.0899 9 10.0878C10.1775 10.098 11.3214 9.69596 12.2336 8.95129C13.1457 8.20662 13.7686 7.1663 13.9943 6.0106C14.2199 4.8549 14.0341 3.65667 13.4691 2.62358C12.904 1.59049 11.9953 0.787645 10.9005 0.354185C9.80567 -0.0792759 8.59368 -0.116032 7.47459 0.250287C6.3555 0.616605 5.39984 1.36291 4.77322 2.35986C4.14661 3.35682 3.88855 4.54158 4.04375 5.70883C4.19895 6.87608 4.75765 7.95224 5.623 8.75081C3.96321 9.42414 2.54177 10.5769 1.54021 12.0619C0.538645 13.5468 0.00241635 15.2966 0 17.0878C0 17.353 0.105357 17.6074 0.292893 17.7949C0.48043 17.9825 0.734784 18.0878 1 18.0878ZM9 2.08781C9.59334 2.08781 10.1734 2.26376 10.6667 2.5934C11.1601 2.92305 11.5446 3.39158 11.7716 3.93976C11.9987 4.48794 12.0581 5.09114 11.9424 5.67308C11.8266 6.25502 11.5409 6.78957 11.1213 7.20913C10.7018 7.62869 10.1672 7.91441 9.58527 8.03017C9.00333 8.14592 8.40013 8.08651 7.85195 7.85945C7.30377 7.63239 6.83524 7.24787 6.50559 6.75452C6.17595 6.26117 6 5.68116 6 5.08781C6 4.29216 6.31607 3.5291 6.87868 2.96649C7.44129 2.40388 8.20435 2.08781 9 2.08781ZM21.546 12.6878H20.839C20.7459 12.6861 20.6555 12.6566 20.5792 12.6031C20.503 12.5497 20.4444 12.4747 20.411 12.3878V12.3818C20.3726 12.2968 20.3605 12.2021 20.3764 12.1102C20.3922 12.0182 20.4353 11.9331 20.5 11.8658L21 11.3658C21.0423 11.3236 21.0759 11.2735 21.0988 11.2184C21.1217 11.1632 21.1334 11.104 21.1334 11.0443C21.1334 10.9846 21.1217 10.9254 21.0988 10.8703C21.0759 10.8151 21.0423 10.765 21 10.7228L20.37 10.0928C20.3278 10.0505 20.2777 10.0169 20.2225 9.99405C20.1674 9.97115 20.1082 9.95936 20.0485 9.95936C19.9888 9.95936 19.9296 9.97115 19.8745 9.99405C19.8193 10.0169 19.7692 10.0505 19.727 10.0928L19.227 10.5928C19.1597 10.6575 19.0746 10.7006 18.9826 10.7164C18.8907 10.7323 18.7961 10.7202 18.711 10.6818H18.705C18.6181 10.6484 18.5431 10.5898 18.4897 10.5136C18.4362 10.4374 18.4068 10.3469 18.405 10.2538V9.54681C18.4057 9.48635 18.3943 9.42636 18.3714 9.37037C18.3486 9.31438 18.3148 9.26351 18.2721 9.22076C18.2293 9.178 18.1784 9.14422 18.1224 9.12139C18.0665 9.09856 18.0065 9.08714 17.946 9.08781H17.054C16.9944 9.08781 16.9353 9.09955 16.8803 9.12237C16.8252 9.14518 16.7751 9.17863 16.733 9.22078C16.6908 9.26294 16.6574 9.31299 16.6346 9.36807C16.6117 9.42315 16.6 9.48219 16.6 9.54181V10.2488C16.5982 10.3419 16.5688 10.4324 16.5153 10.5086C16.4619 10.5848 16.3869 10.6434 16.3 10.6768H16.294C16.2089 10.7152 16.1143 10.7273 16.0224 10.7114C15.9304 10.6956 15.8453 10.6525 15.778 10.5878L15.278 10.0878C15.2358 10.0455 15.1857 10.0119 15.1305 9.98905C15.0754 9.96615 15.0162 9.95436 14.9565 9.95436C14.8968 9.95436 14.8376 9.96615 14.7825 9.98905C14.7273 10.0119 14.6772 10.0455 14.635 10.0878L14.005 10.7178C13.9627 10.76 13.9291 10.8101 13.9062 10.8653C13.8833 10.9204 13.8716 10.9796 13.8716 11.0393C13.8716 11.099 13.8833 11.1582 13.9062 11.2134C13.9291 11.2685 13.9627 11.3186 14.005 11.3608L14.505 11.8608C14.5697 11.9281 14.6128 12.0132 14.6286 12.1052C14.6445 12.1971 14.6324 12.2918 14.594 12.3768V12.3828C14.5606 12.4697 14.502 12.5447 14.4258 12.5981C14.3495 12.6516 14.2591 12.6811 14.166 12.6828H13.459C13.3386 12.6828 13.2231 12.7306 13.138 12.8158C13.0528 12.9009 13.005 13.0164 13.005 13.1368V14.0288C13.005 14.1492 13.0528 14.2647 13.138 14.3498C13.2231 14.435 13.3386 14.4828 13.459 14.4828H14.166C14.2591 14.4846 14.3495 14.5141 14.4258 14.5675C14.502 14.6209 14.5606 14.6959 14.594 14.7828V14.7888C14.6324 14.8739 14.6445 14.9685 14.6286 15.0605C14.6128 15.1524 14.5697 15.2375 14.505 15.3048L14.005 15.8048C13.9627 15.847 13.9291 15.8971 13.9062 15.9523C13.8833 16.0074 13.8716 16.0666 13.8716 16.1263C13.8716 16.186 13.8833 16.2452 13.9062 16.3004C13.9291 16.3555 13.9627 16.4056 14.005 16.4478L14.635 17.0778C14.6772 17.1201 14.7273 17.1537 14.7825 17.1766C14.8376 17.1995 14.8968 17.2113 14.9565 17.2113C15.0162 17.2113 15.0754 17.1995 15.1305 17.1766C15.1857 17.1537 15.2358 17.1201 15.278 17.0778L15.778 16.5778C15.8453 16.5131 15.9304 16.4701 16.0224 16.4542C16.1143 16.4383 16.2089 16.4504 16.294 16.4888H16.3C16.3869 16.5222 16.4619 16.5808 16.5153 16.657C16.5688 16.7333 16.5982 16.8237 16.6 16.9168V17.6238C16.6 17.6834 16.6117 17.7425 16.6346 17.7975C16.6574 17.8526 16.6908 17.9027 16.733 17.9448C16.7751 17.987 16.8252 18.0204 16.8803 18.0433C16.9353 18.0661 16.9944 18.0778 17.054 18.0778H17.946C18.0056 18.0778 18.0647 18.0661 18.1197 18.0433C18.1748 18.0204 18.2249 17.987 18.267 17.9448C18.3092 17.9027 18.3426 17.8526 18.3654 17.7975C18.3883 17.7425 18.4 17.6834 18.4 17.6238V16.9168C18.4018 16.8237 18.4312 16.7333 18.4847 16.657C18.5381 16.5808 18.6131 16.5222 18.7 16.4888H18.706C18.7911 16.4504 18.8857 16.4383 18.9776 16.4542C19.0696 16.4701 19.1547 16.5131 19.222 16.5778L19.722 17.0778C19.7642 17.1201 19.8143 17.1537 19.8695 17.1766C19.9246 17.1995 19.9838 17.2113 20.0435 17.2113C20.1032 17.2113 20.1624 17.1995 20.2175 17.1766C20.2727 17.1537 20.3228 17.1201 20.365 17.0778L20.995 16.4478C21.0373 16.4056 21.0709 16.3555 21.0938 16.3004C21.1167 16.2452 21.1284 16.186 21.1284 16.1263C21.1284 16.0666 21.1167 16.0074 21.0938 15.9523C21.0709 15.8971 21.0373 15.847 20.995 15.8048L20.495 15.3048C20.4303 15.2375 20.3872 15.1524 20.3714 15.0605C20.3555 14.9685 20.3676 14.8739 20.406 14.7888V14.7828C20.4394 14.6959 20.498 14.6209 20.5742 14.5675C20.6505 14.5141 20.7409 14.4846 20.834 14.4828H21.541C21.6006 14.4835 21.6598 14.4724 21.7151 14.4502C21.7705 14.428 21.8209 14.3951 21.8635 14.3534C21.9061 14.3117 21.9401 14.262 21.9635 14.2072C21.987 14.1523 21.9993 14.0934 22 14.0338V13.1418C22 13.0214 21.9522 12.9059 21.867 12.8208C21.7819 12.7356 21.6664 12.6878 21.546 12.6878ZM17.5 14.9378C17.233 14.9378 16.972 14.8586 16.75 14.7103C16.528 14.562 16.3549 14.3511 16.2528 14.1044C16.1506 13.8578 16.1238 13.5863 16.1759 13.3244C16.228 13.0626 16.3566 12.822 16.5454 12.6332C16.7342 12.4444 16.9748 12.3158 17.2366 12.2638C17.4985 12.2117 17.7699 12.2384 18.0166 12.3406C18.2633 12.4428 18.4741 12.6158 18.6225 12.8378C18.7708 13.0598 18.85 13.3208 18.85 13.5878C18.8501 13.7651 18.8153 13.9407 18.7475 14.1046C18.6797 14.2684 18.5803 14.4173 18.4549 14.5427C18.3295 14.6681 18.1806 14.7675 18.0168 14.8353C17.8529 14.9031 17.6773 14.9379 17.5 14.9378Z" fill="black"/>
</svg>
