<svg width="20" height="20" viewBox="0 0 20 20" fill="none" xmlns="http://www.w3.org/2000/svg">
<path d="M0.343 16.7412C0.615 16.9832 0.452 16.8512 9.684 19.9492C9.88913 20.0176 10.1109 20.0176 10.316 19.9492C19 17.0002 19.284 17.0732 19.658 16.7412C19.7743 16.6325 19.8666 16.5007 19.929 16.3542C19.9739 16.2415 19.998 16.1216 20 16.0002V4.00024C19.998 3.87891 19.9739 3.75896 19.929 3.64624C19.8666 3.49978 19.7743 3.36796 19.658 3.25924C19.295 2.93724 19.091 3.01924 10.316 0.0512408C10.1109 -0.0170803 9.88913 -0.0170803 9.684 0.0512408C6.9 0.984241 0.785 3.00024 0.542 3.12524C0.469926 3.16125 0.402721 3.20628 0.342 3.25924C0.225649 3.36813 0.133048 3.49989 0.0699999 3.64624C0.0253931 3.75902 0.00167371 3.87897 0 4.00024V16.0002C0.00199226 16.1216 0.0260511 16.2415 0.0710001 16.3542C0.133819 16.5007 0.226451 16.6325 0.343 16.7412ZM18 14.6122L14.316 13.3852C14.064 13.3014 13.7891 13.3211 13.5517 13.44C13.3143 13.5589 13.1338 13.7673 13.05 14.0192C12.9662 14.2712 12.9859 14.5461 13.1048 14.7835C13.2237 15.021 13.432 15.2014 13.684 15.2852L15.838 16.0002L11 17.6122V7.72124L18 5.38824V14.6122ZM10 2.05424L15.838 4.00024L10 5.94624L4.162 4.00024L10 2.05424ZM2 5.38824L9 7.72124V17.6122L4.162 16.0002L6.316 15.2822C6.56796 15.1984 6.7763 15.018 6.8952 14.7805C7.01409 14.5431 7.03381 14.2682 6.95 14.0162C6.86619 13.7643 6.68573 13.5559 6.44831 13.437C6.21089 13.3181 5.93596 13.2984 5.684 13.3822L2 14.6122V5.38824Z" fill="black"/>
</svg>
