<svg width="36" height="34" viewBox="0 0 36 34" fill="none" xmlns="http://www.w3.org/2000/svg">
<path d="M24.709 31.2845L24.7095 25.9283C24.7098 22.9696 22.3114 20.571 19.3527 20.571H7.35736C4.39914 20.571 2.00093 22.969 2.0006 25.9272L2 31.2845M33.9995 31.2848L34 25.9286C34.0003 22.9699 31.6019 20.5713 28.6432 20.5713M23.6772 3.76751C24.9927 4.74357 25.8453 6.30833 25.8453 8.07221C25.8453 9.8361 24.9927 11.4009 23.6772 12.3769M18.823 8.07192C18.823 11.0304 16.4247 13.4287 13.4662 13.4287C10.5078 13.4287 8.10948 11.0304 8.10948 8.07192C8.10948 5.11347 10.5078 2.71516 13.4662 2.71516C16.4247 2.71516 18.823 5.11347 18.823 8.07192Z" stroke="#0085FF" stroke-width="4" stroke-linecap="round" stroke-linejoin="round"/>
</svg>
