<svg width="18" height="22" viewBox="0 0 18 22" fill="none" xmlns="http://www.w3.org/2000/svg">
<path d="M1 0C0.734784 0 0.48043 0.105357 0.292893 0.292893C0.105357 0.48043 0 0.734784 0 1V21C0 21.2652 0.105357 21.5196 0.292893 21.7071C0.48043 21.8946 0.734784 22 1 22C1.26522 22 1.51957 21.8946 1.70711 21.7071C1.89464 21.5196 2 21.2652 2 21V14H17C17.1884 14.0001 17.373 13.9469 17.5326 13.8466C17.6921 13.7463 17.8201 13.603 17.9017 13.4332C17.9833 13.2633 18.0153 13.0739 17.9939 12.8867C17.9726 12.6995 17.8988 12.5221 17.781 12.375L14.281 8L17.781 3.625C17.8988 3.47791 17.9726 3.30053 17.9939 3.11331C18.0153 2.92609 17.9833 2.73665 17.9017 2.56682C17.8201 2.39698 17.6921 2.25367 17.5326 2.15338C17.373 2.0531 17.1884 1.99993 17 2H2V1C2 0.734784 1.89464 0.48043 1.70711 0.292893C1.51957 0.105357 1.26522 0 1 0ZM14.919 4L12.219 7.375C12.077 7.55236 11.9996 7.77279 11.9996 8C11.9996 8.22721 12.077 8.44764 12.219 8.625L14.919 12H2V4H14.919Z" fill="black"/>
</svg>
