<svg width="15" height="13" viewBox="0 0 15 13" fill="none" xmlns="http://www.w3.org/2000/svg">
<path d="M11.8213 1.24625C11.7722 1.13574 11.6921 1.04184 11.5907 0.975947C11.4893 0.910051 11.371 0.874985 11.25 0.875H10C9.83426 0.875 9.67529 0.940848 9.55808 1.05806C9.44087 1.17527 9.37502 1.33424 9.37502 1.5C9.37502 1.66576 9.44087 1.82473 9.55808 1.94194C9.67529 2.05915 9.83426 2.125 10 2.125H10.8438L12.7881 6.5H9.37502C9.0435 6.5 8.72556 6.6317 8.49114 6.86612C8.25672 7.10054 8.12502 7.41848 8.12502 7.75V8.375H6.87502V7.75C6.87502 7.41848 6.74333 7.10054 6.50891 6.86612C6.27449 6.6317 5.95654 6.5 5.62502 6.5H2.2119L4.15627 2.125H5.00002C5.16578 2.125 5.32476 2.05915 5.44197 1.94194C5.55918 1.82473 5.62502 1.66576 5.62502 1.5C5.62502 1.33424 5.55918 1.17527 5.44197 1.05806C5.32476 0.940848 5.16578 0.875 5.00002 0.875H3.75002C3.6291 0.874985 3.51076 0.910051 3.40937 0.975947C3.30797 1.04184 3.22787 1.13574 3.17877 1.24625C0.590024 7.07375 0.625024 6.9375 0.625024 7.11938V7.125V10.25C0.625024 10.7473 0.822568 11.2242 1.1742 11.5758C1.52583 11.9275 2.00274 12.125 2.50002 12.125H5.00002C5.4973 12.125 5.97422 11.9275 6.32585 11.5758C6.67748 11.2242 6.87502 10.7473 6.87502 10.25V9.625H8.12502V10.25C8.12502 10.7473 8.32257 11.2242 8.6742 11.5758C9.02583 11.9275 9.50274 12.125 10 12.125H12.5C12.9973 12.125 13.4742 11.9275 13.8258 11.5758C14.1775 11.2242 14.375 10.7473 14.375 10.25V7.125V7.11938C14.3713 6.81687 14.1994 6.7 11.8213 1.24625ZM5.62502 10.25C5.62502 10.4158 5.55918 10.5747 5.44197 10.6919C5.32476 10.8092 5.16578 10.875 5.00002 10.875H2.50002C2.33426 10.875 2.17529 10.8092 2.05808 10.6919C1.94087 10.5747 1.87502 10.4158 1.87502 10.25V7.75H5.62502V10.25ZM13.125 10.25C13.125 10.4158 13.0592 10.5747 12.942 10.6919C12.8248 10.8092 12.6658 10.875 12.5 10.875H10C9.83426 10.875 9.67529 10.8092 9.55808 10.6919C9.44087 10.5747 9.37502 10.4158 9.37502 10.25V7.75H13.125V10.25Z" fill="#969696"/>
</svg>
