<svg width="22" height="18" viewBox="0 0 22 18" fill="none" xmlns="http://www.w3.org/2000/svg">
<path d="M22 8.00008C22 8.26529 21.8946 8.51965 21.7071 8.70718C21.5196 8.89472 21.2652 9.00008 21 9.00008H18.659L15.919 15.3941C15.8353 15.5817 15.6966 15.7396 15.5212 15.8467C15.3459 15.9538 15.1422 16.0052 14.937 15.9941C14.7305 15.9813 14.5331 15.9048 14.3719 15.7752C14.2107 15.6455 14.0937 15.469 14.037 15.2701L11.064 4.86508L7.97 17.2421C7.91868 17.4493 7.80237 17.6347 7.63808 17.7711C7.4738 17.9075 7.27017 17.9878 7.057 18.0001H7C6.79642 18.0003 6.59764 17.9383 6.4302 17.8226C6.26277 17.7068 6.13466 17.5426 6.063 17.3521L3.307 10.0001H1C0.734784 10.0001 0.48043 9.89472 0.292893 9.70718C0.105357 9.51965 0 9.2653 0 9.00008C0 8.73486 0.105357 8.48051 0.292893 8.29297C0.48043 8.10544 0.734784 8.00008 1 8.00008H4C4.20358 7.99987 4.40236 8.06181 4.5698 8.1776C4.73723 8.29339 4.86534 8.45753 4.937 8.64808L6.809 13.6421L10.03 0.758078C10.0836 0.544778 10.2061 0.355111 10.3784 0.218444C10.5508 0.0817773 10.7633 0.00573479 10.9832 0.00209049C11.2031 -0.0015538 11.4181 0.0674035 11.5949 0.198285C11.7716 0.329167 11.9003 0.514672 11.961 0.726078L15.189 12.0261L17.081 7.61108C17.1573 7.4303 17.2852 7.27597 17.4486 7.16733C17.612 7.05868 17.8038 7.00052 18 7.00008H21C21.2652 7.00008 21.5196 7.10543 21.7071 7.29297C21.8946 7.48051 22 7.73486 22 8.00008Z" fill="black"/>
</svg>
