<svg width="22" height="20" viewBox="0 0 22 20" fill="none" xmlns="http://www.w3.org/2000/svg">
<path d="M15.0254 18.5707L15.0257 15.3569C15.0259 13.5818 13.5869 12.1426 11.8117 12.1426H4.61444C2.83951 12.1426 1.40059 13.5814 1.40039 15.3563L1.40002 18.5707M20.5997 18.5709L20.6 15.3571C20.6002 13.5819 19.1612 12.1428 17.386 12.1428M14.4064 2.06048C15.1957 2.64612 15.7072 3.58498 15.7072 4.64331C15.7072 5.70164 15.1957 6.64049 14.4064 7.22613M11.4938 4.64313C11.4938 6.41821 10.0548 7.85719 8.27977 7.85719C6.50469 7.85719 5.06571 6.41821 5.06571 4.64313C5.06571 2.86806 6.50469 1.42908 8.27977 1.42908C10.0548 1.42908 11.4938 2.86806 11.4938 4.64313Z" stroke="#1C1C1C" stroke-width="1.2" fill="none" />
</svg>
