<svg width="22" height="19" viewBox="0 0 22 19" fill="none" xmlns="http://www.w3.org/2000/svg">
<path d="M1 19H7C7.26522 19 7.51957 18.8946 7.70711 18.7071C7.89464 18.5196 8 18.2652 8 18C8 17.7348 7.89464 17.4804 7.70711 17.2929C7.51957 17.1053 7.26522 17 7 17H2.071C2.31366 15.3348 3.14714 13.8125 4.41925 12.7109C5.69136 11.6093 7.31724 11.0021 9 11C10.1775 11.0102 11.3214 10.6081 12.2336 9.86346C13.1457 9.1188 13.7686 8.07847 13.9943 6.92277C14.2199 5.76707 14.0341 4.56884 13.4691 3.53575C12.904 2.50266 11.9953 1.69982 10.9005 1.26636C9.80567 0.832895 8.59368 0.796138 7.47459 1.16246C6.3555 1.52878 5.39984 2.27508 4.77322 3.27203C4.14661 4.26899 3.88855 5.45375 4.04375 6.621C4.19895 7.78825 4.75765 8.86441 5.623 9.66298C3.96321 10.3363 2.54177 11.4891 1.54021 12.974C0.538645 14.459 0.00241635 16.2088 0 18C0 18.2652 0.105357 18.5196 0.292893 18.7071C0.48043 18.8946 0.734784 19 1 19ZM9 2.99998C9.59334 2.99998 10.1734 3.17593 10.6667 3.50557C11.1601 3.83522 11.5446 4.30375 11.7716 4.85193C11.9987 5.40011 12.0581 6.00331 11.9424 6.58525C11.8266 7.1672 11.5409 7.70174 11.1213 8.1213C10.7018 8.54086 10.1672 8.82658 9.58527 8.94234C9.00333 9.05809 8.40013 8.99868 7.85195 8.77162C7.30377 8.54456 6.83524 8.16004 6.50559 7.66669C6.17595 7.17334 6 6.59333 6 5.99998C6 5.20433 6.31607 4.44127 6.87868 3.87866C7.44129 3.31605 8.20435 2.99998 9 2.99998ZM19.207 7.29298C19.0195 7.10551 18.7652 7.0002 18.5 7.0002C18.2348 7.0002 17.9805 7.10551 17.793 7.29298L11.543 13.543C11.4337 13.6531 11.3513 13.7869 11.302 13.934L10.052 17.684C10.002 17.8342 9.98831 17.9942 10.0122 18.1508C10.0361 18.3073 10.0968 18.456 10.1894 18.5845C10.2819 18.713 10.4037 18.8177 10.5446 18.8899C10.6856 18.9621 10.8416 18.9999 11 19C11.1074 18.9998 11.214 18.9826 11.316 18.949L15.066 17.699C15.2134 17.6498 15.3472 17.5669 15.457 17.457L21.707 11.207C21.8945 11.0195 21.9998 10.7651 21.9998 10.5C21.9998 10.2348 21.8945 9.98051 21.707 9.79298L19.207 7.29298ZM14.207 15.876L12.578 16.419L13.121 14.79L18.5 9.41398L19.586 10.5L14.207 15.876Z" fill="#1C1C1C"/>
</svg>
