<svg width="36" height="36" viewBox="0 0 36 36" fill="none" xmlns="http://www.w3.org/2000/svg">
<path d="M34 25.6V27.1C34.8284 27.1 35.5 26.4284 35.5 25.6H34ZM34 16.8H35.5C35.5 15.9716 34.8284 15.3 34 15.3V16.8ZM9.98886 8.33824C9.29201 8.78621 9.09025 9.71429 9.53823 10.4111C9.98621 11.108 10.9143 11.3097 11.6111 10.8618L9.98886 8.33824ZM22 2.4L23.184 1.47909C22.7074 0.866274 21.8419 0.718415 21.1889 1.13823L22 2.4ZM26.416 10.5209C26.9246 11.1748 27.867 11.2926 28.5209 10.784C29.1748 10.2754 29.2926 9.33301 28.784 8.67909L26.416 10.5209ZM34 24.1H28.8V27.1H34V24.1ZM28.8 18.3H34V15.3H28.8V18.3ZM32.5 16.8V25.6H35.5V16.8H32.5ZM25.9 21.2C25.9 19.5984 27.1984 18.3 28.8 18.3V15.3C25.5415 15.3 22.9 17.9415 22.9 21.2H25.9ZM28.8 24.1C27.1984 24.1 25.9 22.8016 25.9 21.2H22.9C22.9 24.4585 25.5415 27.1 28.8 27.1V24.1ZM11.6111 10.8618L22.8111 3.66177L21.1889 1.13823L9.98886 8.33824L11.6111 10.8618ZM20.816 3.32091L26.416 10.5209L28.784 8.67909L23.184 1.47909L20.816 3.32091ZM3.6 11.1H30.8V8.1H3.6V11.1ZM30.8 32.1H3.6V35.1H30.8V32.1ZM3.5 32V11.2H0.5V32H3.5ZM3.6 32.1C3.54477 32.1 3.5 32.0552 3.5 32H0.5C0.5 33.7121 1.88791 35.1 3.6 35.1V32.1ZM30.9 32C30.9 32.0552 30.8552 32.1 30.8 32.1V35.1C32.5121 35.1 33.9 33.7121 33.9 32H30.9ZM30.8 11.1C30.8552 11.1 30.9 11.1448 30.9 11.2H33.9C33.9 9.48792 32.5121 8.1 30.8 8.1V11.1ZM3.6 8.1C1.88792 8.1 0.5 9.48792 0.5 11.2H3.5C3.5 11.1448 3.54477 11.1 3.6 11.1V8.1ZM30.9 26.8V32H33.9V26.8H30.9ZM30.9 11.2V15.4H33.9V11.2H30.9Z" fill="#0085FF"/>
</svg>
