<svg width="37" height="37" viewBox="0 0 37 37" fill="none" xmlns="http://www.w3.org/2000/svg">
<g filter="url(#filter0_d_3363_5886)">
<rect x="1" width="35" height="35" rx="17.5" fill="white"/>
<path fill-rule="evenodd" clip-rule="evenodd" d="M14.75 16.25C14.0625 16.25 13.5 16.8125 13.5 17.5C13.5 18.1875 14.0625 18.75 14.75 18.75C15.4375 18.75 16 18.1875 16 17.5C16 16.8125 15.4375 16.25 14.75 16.25ZM22.25 16.25C21.5625 16.25 21 16.8125 21 17.5C21 18.1875 21.5625 18.75 22.25 18.75C22.9375 18.75 23.5 18.1875 23.5 17.5C23.5 16.8125 22.9375 16.25 22.25 16.25ZM18.5 16.25C17.8125 16.25 17.25 16.8125 17.25 17.5C17.25 18.1875 17.8125 18.75 18.5 18.75C19.1875 18.75 19.75 18.1875 19.75 17.5C19.75 16.8125 19.1875 16.25 18.5 16.25Z" fill="#969696"/>
<rect x="1.5" y="0.5" width="34" height="34" rx="17" stroke="#E8E8E8"/>
</g>
<defs>
<filter id="filter0_d_3363_5886" x="0" y="0" width="37" height="37" filterUnits="userSpaceOnUse" color-interpolation-filters="sRGB">
<feFlood flood-opacity="0" result="BackgroundImageFix"/>
<feColorMatrix in="SourceAlpha" type="matrix" values="0 0 0 0 0 0 0 0 0 0 0 0 0 0 0 0 0 0 127 0" result="hardAlpha"/>
<feOffset dy="1"/>
<feGaussianBlur stdDeviation="0.5"/>
<feColorMatrix type="matrix" values="0 0 0 0 0 0 0 0 0 0 0 0 0 0 0 0 0 0 0.06 0"/>
<feBlend mode="normal" in2="BackgroundImageFix" result="effect1_dropShadow_3363_5886"/>
<feBlend mode="normal" in="SourceGraphic" in2="effect1_dropShadow_3363_5886" result="shape"/>
</filter>
</defs>
</svg>
