<svg width="17" height="18" viewBox="0 0 17 18" fill="none" xmlns="http://www.w3.org/2000/svg">
<path d="M0.292431 15.293L6.58543 9.00002L0.292431 2.70702C0.110273 2.51842 0.00947813 2.26582 0.0117566 2.00362C0.014035 1.74142 0.119204 1.49061 0.304612 1.3052C0.49002 1.11979 0.740833 1.01462 1.00303 1.01235C1.26523 1.01007 1.51783 1.11086 1.70643 1.29302L7.99943 7.58602L14.2924 1.29302C14.3847 1.19751 14.495 1.12133 14.617 1.06892C14.739 1.01651 14.8703 0.988924 15.003 0.98777C15.1358 0.986616 15.2675 1.01192 15.3904 1.0622C15.5133 1.11248 15.6249 1.18673 15.7188 1.28062C15.8127 1.37452 15.887 1.48617 15.9373 1.60907C15.9875 1.73196 16.0128 1.86364 16.0117 1.99642C16.0105 2.1292 15.9829 2.26042 15.9305 2.38242C15.8781 2.50443 15.8019 2.61477 15.7064 2.70702L9.41343 9.00002L15.7064 15.293C15.8019 15.3853 15.8781 15.4956 15.9305 15.6176C15.9829 15.7396 16.0105 15.8708 16.0117 16.0036C16.0128 16.1364 15.9875 16.2681 15.9373 16.391C15.887 16.5139 15.8127 16.6255 15.7188 16.7194C15.6249 16.8133 15.5133 16.8876 15.3904 16.9378C15.2675 16.9881 15.1358 17.0134 15.003 17.0123C14.8703 17.0111 14.739 16.9835 14.617 16.9311C14.495 16.8787 14.3847 16.8025 14.2924 16.707L7.99943 10.414L1.70643 16.707C1.51783 16.8892 1.26523 16.99 1.00303 16.9877C0.740833 16.9854 0.49002 16.8802 0.304612 16.6948C0.119204 16.5094 0.014035 16.2586 0.0117566 15.9964C0.00947813 15.7342 0.110273 15.4816 0.292431 15.293Z" fill="#1C1C1C"/>
</svg>
