<svg width="38" height="38" viewBox="0 0 38 38" fill="none" xmlns="http://www.w3.org/2000/svg">
<path d="M37.2517 17.765C37.2315 17.6569 37.1996 17.5513 37.1567 17.45C37.1451 17.4267 37.1467 17.4 37.1351 17.3767L31.3017 6.54333C31.2366 6.42969 31.1571 6.32493 31.0651 6.23166C30.9115 6.05558 30.7223 5.91415 30.51 5.81674C30.2976 5.71934 30.067 5.66818 29.8334 5.66666H20.6667V2.33333C20.6667 1.8913 20.4912 1.46738 20.1786 1.15482C19.866 0.842259 19.4421 0.666664 19.0001 0.666664C18.5581 0.666664 18.1341 0.842259 17.8216 1.15482C17.509 1.46738 17.3334 1.8913 17.3334 2.33333V5.66666H8.16675C7.93313 5.66818 7.70251 5.71934 7.49017 5.81674C7.27783 5.91415 7.08862 6.05558 6.93508 6.23166C6.84311 6.32493 6.76356 6.42969 6.69841 6.54333L0.865081 17.3767C0.853415 17.4 0.855081 17.4267 0.843415 17.45C0.800534 17.5507 0.768682 17.6558 0.748415 17.7633C0.714659 17.8718 0.692316 17.9835 0.681748 18.0967C0.681748 18.1217 0.666748 18.1433 0.666748 18.17C0.666748 20.1591 1.45692 22.0668 2.86345 23.4733C4.26997 24.8798 6.17762 25.67 8.16675 25.67C10.1559 25.67 12.0635 24.8798 13.47 23.4733C14.8766 22.0668 15.6667 20.1591 15.6667 18.17C15.6667 18.1433 15.6534 18.1217 15.6517 18.0967C15.6413 17.9835 15.619 17.8718 15.5851 17.7633C15.5648 17.6552 15.533 17.5496 15.4901 17.4483C15.4784 17.425 15.4801 17.3983 15.4684 17.375L10.9567 9H17.3334V29H12.3334C11.8914 29 11.4675 29.1756 11.1549 29.4881C10.8423 29.8007 10.6667 30.2246 10.6667 30.6667C10.6667 31.1087 10.8423 31.5326 11.1549 31.8452C11.4675 32.1577 11.8914 32.3333 12.3334 32.3333H25.6667C26.1088 32.3333 26.5327 32.1577 26.8453 31.8452C27.1578 31.5326 27.3334 31.1087 27.3334 30.6667C27.3334 30.2246 27.1578 29.8007 26.8453 29.4881C26.5327 29.1756 26.1088 29 25.6667 29H20.6667V9H27.0434L22.5317 17.3767C22.5201 17.4 22.5217 17.4267 22.5101 17.45C22.4672 17.5507 22.4353 17.6558 22.4151 17.7633C22.3813 17.8718 22.359 17.9835 22.3484 18.0967C22.3484 18.1217 22.3334 18.1433 22.3334 18.17C22.3334 20.1591 23.1236 22.0668 24.5301 23.4733C25.9366 24.8798 27.8443 25.67 29.8334 25.67C31.8225 25.67 33.7302 24.8798 35.1367 23.4733C36.5432 22.0668 37.3334 20.1591 37.3334 18.17C37.3334 18.1433 37.3201 18.1217 37.3184 18.0967C37.3078 17.9841 37.2855 17.8729 37.2517 17.765ZM8.16675 22.3333C7.35609 22.3332 6.56307 22.0967 5.88485 21.6526C5.20663 21.2086 4.67268 20.5763 4.34841 19.8333H11.9851C11.6608 20.5763 11.1269 21.2086 10.4486 21.6526C9.77043 22.0967 8.9774 22.3332 8.16675 22.3333ZM11.2101 16.5H5.12341L8.16675 10.8483L11.2101 16.5ZM29.8334 10.8483L32.8767 16.5H26.7901L29.8334 10.8483ZM29.8334 22.3333C29.0228 22.3332 28.2297 22.0967 27.5515 21.6526C26.8733 21.2086 26.3393 20.5763 26.0151 19.8333H33.6517C33.3275 20.5763 32.7935 21.2086 32.1153 21.6526C31.4371 22.0967 30.6441 22.3332 29.8334 22.3333ZM34.0001 35.6667C34.0001 36.1087 33.8245 36.5326 33.5119 36.8452C33.1994 37.1577 32.7754 37.3333 32.3334 37.3333H5.66675C5.22472 37.3333 4.8008 37.1577 4.48824 36.8452C4.17568 36.5326 4.00008 36.1087 4.00008 35.6667C4.00008 35.2246 4.17568 34.8007 4.48824 34.4881C4.8008 34.1756 5.22472 34 5.66675 34H32.3334C32.7754 34 33.1994 34.1756 33.5119 34.4881C33.8245 34.8007 34.0001 35.2246 34.0001 35.6667Z" fill="#0085FF"/>
</svg>
