<svg width="20" height="20" viewBox="0 0 20 20" fill="none" xmlns="http://www.w3.org/2000/svg">
<path d="M0.292786 19.7071C0.480314 19.8946 0.734622 19.9999 0.999786 19.9999C1.26495 19.9999 1.51926 19.8946 1.70679 19.7071L12.2428 9.17113C13.2765 9.85439 14.527 10.1295 15.752 9.94311C16.977 9.75673 18.0892 9.12213 18.8728 8.16234C19.6565 7.20256 20.0559 5.98597 19.9936 4.74845C19.9312 3.51093 19.4116 2.34064 18.5354 1.46447C17.6593 0.588302 16.489 0.0686758 15.2515 0.00633649C14.0139 -0.0560028 12.7974 0.343386 11.8376 1.12707C10.8778 1.91075 10.2432 3.0229 10.0568 4.24789C9.87041 5.47289 10.1455 6.72345 10.8288 7.75713L0.292786 18.2931C0.105315 18.4807 0 18.735 0 19.0001C0 19.2653 0.105315 19.5196 0.292786 19.7071ZM12.8788 2.87913C13.1555 2.5926 13.4866 2.36405 13.8526 2.20682C14.2186 2.0496 14.6122 1.96684 15.0106 1.96338C15.4089 1.95992 15.804 2.03582 16.1726 2.18666C16.5413 2.33751 16.8763 2.56026 17.158 2.84194C17.4396 3.12362 17.6624 3.45858 17.8133 3.82727C17.9641 4.19595 18.04 4.59099 18.0365 4.98933C18.0331 5.38767 17.9503 5.78133 17.7931 6.14734C17.6359 6.51335 17.4073 6.84439 17.1208 7.12113C16.5493 7.66654 15.7897 7.97084 14.9998 7.97084C14.2098 7.97084 13.4502 7.66654 12.8788 7.12113C12.3164 6.55855 12.0004 5.79562 12.0004 5.00013C12.0004 4.20464 12.3164 3.44171 12.8788 2.87913Z" fill="black"/>
</svg>
