<svg width="22" height="19" viewBox="0 0 22 19" fill="none" xmlns="http://www.w3.org/2000/svg">
<path d="M1 18.0878H9C9.26522 18.0878 9.51957 17.9825 9.70711 17.7949C9.89464 17.6074 10 17.353 10 17.0878C10 16.8226 9.89464 16.5682 9.70711 16.3807C9.51957 16.1932 9.26522 16.0878 9 16.0878H2.071C2.31366 14.4226 3.14714 12.9003 4.41925 11.7987C5.69136 10.6972 7.31724 10.0899 9 10.0878C10.1775 10.098 11.3214 9.69596 12.2336 8.95129C13.1457 8.20662 13.7686 7.1663 13.9943 6.0106C14.2199 4.8549 14.0341 3.65667 13.4691 2.62358C12.904 1.59049 11.9953 0.787645 10.9005 0.354185C9.80567 -0.0792759 8.59368 -0.116032 7.47459 0.250287C6.3555 0.616605 5.39984 1.36291 4.77322 2.35986C4.14661 3.35682 3.88855 4.54158 4.04375 5.70883C4.19895 6.87608 4.75765 7.95224 5.623 8.75081C3.96321 9.42414 2.54177 10.5769 1.54021 12.0619C0.538645 13.5468 0.00241635 15.2966 0 17.0878C0 17.353 0.105357 17.6074 0.292893 17.7949C0.48043 17.9825 0.734784 18.0878 1 18.0878ZM9 2.08781C9.59334 2.08781 10.1734 2.26376 10.6667 2.5934C11.1601 2.92305 11.5446 3.39158 11.7716 3.93976C11.9987 4.48794 12.0581 5.09114 11.9424 5.67308C11.8266 6.25502 11.5409 6.78957 11.1213 7.20913C10.7018 7.62869 10.1672 7.91441 9.58527 8.03017C9.00333 8.14592 8.40013 8.08651 7.85195 7.85945C7.30377 7.63239 6.83524 7.24787 6.50559 6.75452C6.17595 6.26117 6 5.68116 6 5.08781C6 4.29216 6.31607 3.5291 6.87868 2.96649C7.44129 2.40388 8.20435 2.08781 9 2.08781ZM19 12.0878L22 12.5258L19.5 14.5878L20.281 18.0878L17.5 16.0878L14.719 18.0878L15.5 14.5878L13 12.5258L16 12.0878L17.5 9.08781L19 12.0878Z" fill="#969696"/>
</svg>
