<svg width="24" height="24" viewBox="0 0 24 24" fill="none" xmlns="http://www.w3.org/2000/svg">
<path d="M2 21H8C8.26522 21 8.51957 20.8946 8.70711 20.7071C8.89464 20.5196 9 20.2652 9 20C9 19.7348 8.89464 19.4804 8.70711 19.2929C8.51957 19.1053 8.26522 19 8 19H3.071C3.31366 17.3348 4.14714 15.8125 5.41925 14.7109C6.69136 13.6093 8.31724 13.0021 10 13C11.1775 13.0102 12.3214 12.6081 13.2336 11.8635C14.1457 11.1188 14.7686 10.0785 14.9943 8.92277C15.2199 7.76707 15.0341 6.56884 14.4691 5.53575C13.904 4.50266 12.9953 3.69982 11.9005 3.26636C10.8057 2.83289 9.59368 2.79614 8.47459 3.16246C7.3555 3.52878 6.39984 4.27508 5.77322 5.27203C5.14661 6.26899 4.88855 7.45375 5.04375 8.621C5.19895 9.78825 5.75765 10.8644 6.623 11.663C4.96321 12.3363 3.54177 13.4891 2.54021 14.974C1.53864 16.459 1.00242 18.2088 1 20C1 20.2652 1.10536 20.5196 1.29289 20.7071C1.48043 20.8946 1.73478 21 2 21ZM10 4.99998C10.5933 4.99998 11.1734 5.17593 11.6667 5.50557C12.1601 5.83522 12.5446 6.30375 12.7716 6.85193C12.9987 7.40011 13.0581 8.00331 12.9424 8.58525C12.8266 9.1672 12.5409 9.70174 12.1213 10.1213C11.7018 10.5409 11.1672 10.8266 10.5853 10.9423C10.0033 11.0581 9.40013 10.9987 8.85195 10.7716C8.30377 10.5446 7.83524 10.16 7.50559 9.66669C7.17595 9.17334 7 8.59333 7 7.99998C7 7.20433 7.31607 6.44127 7.87868 5.87866C8.44129 5.31605 9.20435 4.99998 10 4.99998ZM20.207 9.29298C20.0195 9.10551 19.7652 9.0002 19.5 9.0002C19.2348 9.0002 18.9805 9.10551 18.793 9.29298L12.543 15.543C12.4337 15.6531 12.3513 15.7869 12.302 15.934L11.052 19.684C11.002 19.8342 10.9883 19.9942 11.0122 20.1508C11.0361 20.3073 11.0968 20.456 11.1894 20.5845C11.2819 20.713 11.4037 20.8177 11.5446 20.8899C11.6856 20.9621 11.8416 20.9999 12 21C12.1074 20.9998 12.214 20.9826 12.316 20.949L16.066 19.699C16.2134 19.6498 16.3472 19.5669 16.457 19.457L22.707 13.207C22.8945 13.0195 22.9998 12.7651 22.9998 12.5C22.9998 12.2348 22.8945 11.9805 22.707 11.793L20.207 9.29298ZM15.207 17.876L13.578 18.419L14.121 16.79L19.5 11.414L20.586 12.5L15.207 17.876Z" fill="black"/>
</svg>
